<svg xmlns="http://www.w3.org/2000/svg" viewBox="0 0 64 64" role="img" aria-label="Capture Chess">
  <defs>
    <linearGradient id="gold" x1="12" y1="12" x2="52" y2="52" gradientUnits="userSpaceOnUse">
      <stop stop-color="#FACC15"/>
      <stop offset="1" stop-color="#FDE047"/>
    </linearGradient>
  </defs>
  <rect width="64" height="64" rx="14" fill="#16213a"/>
  <rect x="16" y="14" width="8" height="3" rx="1.5" fill="url(#gold)"/>
  <rect x="40" y="14" width="8" height="3" rx="1.5" fill="url(#gold)"/>
  <rect x="16" y="47" width="8" height="3" rx="1.5" fill="url(#gold)"/>
  <rect x="40" y="47" width="8" height="3" rx="1.5" fill="url(#gold)"/>
  <rect x="14" y="16" width="3" height="8" rx="1.5" fill="url(#gold)"/>
  <rect x="47" y="16" width="3" height="8" rx="1.5" fill="url(#gold)"/>
  <rect x="14" y="40" width="3" height="8" rx="1.5" fill="url(#gold)"/>
  <rect x="47" y="40" width="3" height="8" rx="1.5" fill="url(#gold)"/>
  <path d="M44 42c-2 1-4 1-6 0-3-2-5-6-5-10 0-5 3-9 7-10 1-4 4-6 8-6 5 0 8 4 8 9 0 1 0 2-.2 3 3 2 5 5 5 9 0 3-2 5-4 5-1 0-2 0-3-1z" fill="#F8FAFC"/>
</svg>
