<svg xmlns="http://www.w3.org/2000/svg" viewBox="0 0 64 64" fill="none">
  <defs>
    <linearGradient id="bg" x1="8" y1="4" x2="56" y2="60" gradientUnits="userSpaceOnUse">
      <stop stop-color="#1d4ed8"/>
      <stop offset="1" stop-color="#7c3aed"/>
    </linearGradient>
    <linearGradient id="accent" x1="20" y1="20" x2="44" y2="44" gradientUnits="userSpaceOnUse">
      <stop stop-color="#4ade80"/>
      <stop offset="1" stop-color="#16a34a"/>
    </linearGradient>
  </defs>
  <rect width="64" height="64" rx="14" fill="#09090b"/>
  <rect x="6" y="6" width="52" height="52" rx="12" fill="url(#bg)"/>
  <circle cx="32" cy="30" r="14" stroke="url(#accent)" stroke-width="2.5" fill="none"/>
  <circle cx="32" cy="30" r="5" fill="#09090b" stroke="#4ade80" stroke-width="2"/>
  <path d="M22 42c2-6 6-9 10-9s8 3 10 9" stroke="#fafafa" stroke-width="2.2" stroke-linecap="round"/>
  <path d="M26 38l6-10 6 10" fill="#fafafa"/>
  <rect x="18" y="18" width="8" height="2" rx="1" fill="#4ade80" opacity=".8"/>
  <rect x="38" y="18" width="8" height="2" rx="1" fill="#4ade80" opacity=".8"/>
  <rect x="18" y="44" width="8" height="2" rx="1" fill="#4ade80" opacity=".8"/>
  <rect x="38" y="44" width="8" height="2" rx="1" fill="#4ade80" opacity=".8"/>
</svg>
