<svg xmlns="http://www.w3.org/2000/svg" width="390" height="780" viewBox="0 0 390 780">
  <rect width="390" height="780" fill="#09090b"/>
  <rect x="0" y="0" width="390" height="52" fill="#0c0c0e"/>
  <text x="24" y="32" fill="#a1a1aa" font-family="Inter, system-ui, sans-serif" font-size="13">9:41</text>
  <text x="195" y="32" text-anchor="middle" fill="#fafafa" font-family="Inter, system-ui, sans-serif" font-size="14" font-weight="600">Analysis</text>

  <!-- Eval bar -->
  <rect x="24" y="68" width="342" height="8" rx="4" fill="#27272a"/>
  <rect x="24" y="68" width="220" height="8" rx="4" fill="#4ade80"/>
  <text x="24" y="96" fill="#4ade80" font-family="Inter, system-ui, sans-serif" font-size="13" font-weight="700">+1.4</text>
  <text x="366" y="96" text-anchor="end" fill="#a1a1aa" font-family="Inter, system-ui, sans-serif" font-size="12">Best: Nf3</text>

  <!-- Chess board -->
  <g transform="translate(35, 110)">
    <rect width="320" height="320" rx="8" fill="#312e2b"/>
    <g>
      <rect x="0" y="0" width="40" height="40" fill="#ebecd0"/>
      <rect x="80" y="0" width="40" height="40" fill="#ebecd0"/>
      <rect x="160" y="0" width="40" height="40" fill="#ebecd0"/>
      <rect x="240" y="0" width="40" height="40" fill="#ebecd0"/>
      <rect x="40" y="40" width="40" height="40" fill="#ebecd0"/>
      <rect x="120" y="40" width="40" height="40" fill="#ebecd0"/>
      <rect x="200" y="40" width="40" height="40" fill="#ebecd0"/>
      <rect x="280" y="40" width="40" height="40" fill="#ebecd0"/>
      <rect x="0" y="80" width="40" height="40" fill="#ebecd0"/>
      <rect x="80" y="80" width="40" height="40" fill="#ebecd0"/>
      <rect x="160" y="80" width="40" height="40" fill="#ebecd0"/>
      <rect x="240" y="80" width="40" height="40" fill="#ebecd0"/>
      <rect x="40" y="120" width="40" height="40" fill="#ebecd0"/>
      <rect x="120" y="120" width="40" height="40" fill="#ebecd0"/>
      <rect x="200" y="120" width="40" height="40" fill="#ebecd0"/>
      <rect x="280" y="120" width="40" height="40" fill="#ebecd0"/>
      <rect x="0" y="160" width="40" height="40" fill="#ebecd0"/>
      <rect x="80" y="160" width="40" height="40" fill="#ebecd0"/>
      <rect x="160" y="160" width="40" height="40" fill="#ebecd0"/>
      <rect x="240" y="160" width="40" height="40" fill="#ebecd0"/>
      <rect x="40" y="200" width="40" height="40" fill="#ebecd0"/>
      <rect x="120" y="200" width="40" height="40" fill="#ebecd0"/>
      <rect x="200" y="200" width="40" height="40" fill="#ebecd0"/>
      <rect x="280" y="200" width="40" height="40" fill="#ebecd0"/>
      <rect x="0" y="240" width="40" height="40" fill="#ebecd0"/>
      <rect x="80" y="240" width="40" height="40" fill="#ebecd0"/>
      <rect x="160" y="240" width="40" height="40" fill="#ebecd0"/>
      <rect x="240" y="240" width="40" height="40" fill="#ebecd0"/>
      <rect x="40" y="280" width="40" height="40" fill="#ebecd0"/>
      <rect x="120" y="280" width="40" height="40" fill="#ebecd0"/>
      <rect x="200" y="280" width="40" height="40" fill="#ebecd0"/>
      <rect x="280" y="280" width="40" height="40" fill="#ebecd0"/>
    </g>
    <g fill="#779556">
      <rect x="40" y="0" width="40" height="40"/><rect x="120" y="0" width="40" height="40"/><rect x="200" y="0" width="40" height="40"/><rect x="280" y="0" width="40" height="40"/>
      <rect x="0" y="40" width="40" height="40"/><rect x="80" y="40" width="40" height="40"/><rect x="160" y="40" width="40" height="40"/><rect x="240" y="40" width="40" height="40"/>
      <rect x="40" y="80" width="40" height="40"/><rect x="120" y="80" width="40" height="40"/><rect x="200" y="80" width="40" height="40"/><rect x="280" y="80" width="40" height="40"/>
      <rect x="0" y="120" width="40" height="40"/><rect x="80" y="120" width="40" height="40"/><rect x="160" y="120" width="40" height="40"/><rect x="240" y="120" width="40" height="40"/>
      <rect x="40" y="160" width="40" height="40"/><rect x="120" y="160" width="40" height="40"/><rect x="200" y="160" width="40" height="40"/><rect x="280" y="160" width="40" height="40"/>
      <rect x="0" y="200" width="40" height="40"/><rect x="80" y="200" width="40" height="40"/><rect x="160" y="200" width="40" height="40"/><rect x="240" y="200" width="40" height="40"/>
      <rect x="40" y="240" width="40" height="40"/><rect x="120" y="240" width="40" height="40"/><rect x="200" y="240" width="40" height="40"/><rect x="280" y="240" width="40" height="40"/>
      <rect x="0" y="280" width="40" height="40"/><rect x="80" y="280" width="40" height="40"/><rect x="160" y="280" width="40" height="40"/><rect x="240" y="280" width="40" height="40"/>
    </g>
    <!-- Engine arrow -->
    <line x1="180" y1="260" x2="180" y2="180" stroke="#4ade80" stroke-width="4" marker-end="url(#arrow)"/>
    <defs>
      <marker id="arrow" markerWidth="8" markerHeight="8" refX="4" refY="4" orient="auto">
        <path d="M0,0 L8,4 L0,8 Z" fill="#4ade80"/>
      </marker>
    </defs>
    <!-- Pieces simplified -->
    <circle cx="180" cy="260" r="14" fill="#fafafa" stroke="#27272a"/>
    <circle cx="180" cy="100" r="14" fill="#18181b" stroke="#52525b"/>
    <circle cx="100" cy="180" r="14" fill="#18181b" stroke="#52525b"/>
    <circle cx="260" cy="180" r="14" fill="#fafafa" stroke="#27272a"/>
  </g>

  <!-- Engine panel -->
  <rect x="24" y="450" width="342" height="160" rx="16" fill="#18181b" stroke="#27272a"/>
  <text x="44" y="480" fill="#a1a1aa" font-family="Inter, system-ui, sans-serif" font-size="11" font-weight="600">ENGINE LINES</text>
  <text x="44" y="510" fill="#4ade80" font-family="Inter, system-ui, sans-serif" font-size="14" font-weight="600">1. Nf3  +0.42</text>
  <text x="44" y="534" fill="#fafafa" font-family="Inter, system-ui, sans-serif" font-size="13">2. d4   +0.38</text>
  <text x="44" y="558" fill="#fafafa" font-family="Inter, system-ui, sans-serif" font-size="13">3. c4   +0.31</text>
  <rect x="44" y="574" width="120" height="24" rx="8" fill="#14532d" stroke="#4ade80" stroke-opacity=".4"/>
  <text x="104" y="590" text-anchor="middle" fill="#4ade80" font-family="Inter, system-ui, sans-serif" font-size="11" font-weight="600">MultiPV: 3</text>

  <rect x="24" y="630" width="342" height="48" rx="12" fill="#4ade80"/>
  <text x="195" y="660" text-anchor="middle" fill="#09090b" font-family="Inter, system-ui, sans-serif" font-size="15" font-weight="700">Play Best Move</text>
</svg>
