<svg xmlns="http://www.w3.org/2000/svg" width="390" height="780" viewBox="0 0 390 780">
  <rect width="390" height="780" fill="#09090b"/>
  <rect x="0" y="0" width="390" height="52" fill="#0c0c0e"/>
  <text x="24" y="32" fill="#a1a1aa" font-family="Inter, system-ui, sans-serif" font-size="13">9:41</text>
  <text x="195" y="32" text-anchor="middle" fill="#fafafa" font-family="Inter, system-ui, sans-serif" font-size="14" font-weight="600">Capture Chess</text>

  <text x="24" y="96" fill="#fafafa" font-family="Inter, system-ui, sans-serif" font-size="28" font-weight="700">Scan or analyze</text>
  <text x="24" y="124" fill="#a1a1aa" font-family="Inter, system-ui, sans-serif" font-size="14">Offline scan: local vision ’ FEN ’ Stockfish</text>

  <rect x="24" y="156" width="342" height="72" rx="16" fill="#18181b" stroke="#27272a"/>
  <circle cx="56" cy="192" r="18" fill="#14532d"/>
  <path d="M50 192h12M56 186v12" stroke="#4ade80" stroke-width="2" stroke-linecap="round"/>
  <text x="88" y="188" fill="#fafafa" font-family="Inter, system-ui, sans-serif" font-size="16" font-weight="600">Take a photo</text>
  <text x="88" y="208" fill="#a1a1aa" font-family="Inter, system-ui, sans-serif" font-size="12">Use your camera on any board</text>

  <rect x="24" y="244" width="342" height="72" rx="16" fill="#18181b" stroke="#27272a"/>
  <rect x="38" y="266" width="36" height="28" rx="6" fill="#14532d" stroke="#4ade80" stroke-width="1"/>
  <text x="88" y="276" fill="#fafafa" font-family="Inter, system-ui, sans-serif" font-size="16" font-weight="600">Choose from gallery</text>
  <text x="88" y="296" fill="#a1a1aa" font-family="Inter, system-ui, sans-serif" font-size="12">Pick an existing board photo</text>

  <rect x="24" y="332" width="342" height="72" rx="16" fill="#18181b" stroke="#27272a"/>
  <rect x="38" y="354" width="36" height="28" rx="4" fill="#312e2b" stroke="#779556"/>
  <text x="88" y="364" fill="#fafafa" font-family="Inter, system-ui, sans-serif" font-size="16" font-weight="600">Start from initial position</text>
  <text x="88" y="384" fill="#a1a1aa" font-family="Inter, system-ui, sans-serif" font-size="12">Analyze from the starting setup</text>

  <rect x="24" y="440" width="342" height="140" rx="16" fill="#14532d" opacity=".35" stroke="#4ade80" stroke-opacity=".3"/>
  <text x="44" y="472" fill="#4ade80" font-family="Inter, system-ui, sans-serif" font-size="12" font-weight="600">OFFLINE READY</text>
  <text x="44" y="500" fill="#fafafa" font-family="Inter, system-ui, sans-serif" font-size="15">Stockfish on device  no server required</text>
  <text x="44" y="524" fill="#a1a1aa" font-family="Inter, system-ui, sans-serif" font-size="12">First scan loads vision models (~100 MB)</text>

  <rect x="0" y="720" width="390" height="60" fill="#0c0c0e" stroke="#27272a"/>
  <text x="65" y="755" text-anchor="middle" fill="#4ade80" font-family="Inter, system-ui, sans-serif" font-size="11" font-weight="600">Home</text>
  <text x="195" y="755" text-anchor="middle" fill="#71717a" font-family="Inter, system-ui, sans-serif" font-size="11">Openings</text>
  <text x="325" y="755" text-anchor="middle" fill="#71717a" font-family="Inter, system-ui, sans-serif" font-size="11">Saved</text>
</svg>
