<svg xmlns="http://www.w3.org/2000/svg" width="800" height="800" viewBox="0 0 800 800">
  <rect width="800" height="800" fill="#1a1a1a"/>
  <g stroke="#4ade8055" stroke-width="1" fill="none">
    <line x1="0" y1="0" x2="800" y2="0"/>
    <line x1="0" y1="100" x2="800" y2="100"/>
    <line x1="0" y1="200" x2="800" y2="200"/>
    <line x1="0" y1="300" x2="800" y2="300"/>
    <line x1="0" y1="400" x2="800" y2="400"/>
    <line x1="0" y1="500" x2="800" y2="500"/>
    <line x1="0" y1="600" x2="800" y2="600"/>
    <line x1="0" y1="700" x2="800" y2="700"/>
    <line x1="0" y1="800" x2="800" y2="800"/>
    <line x1="0" y1="0" x2="0" y2="800"/>
    <line x1="100" y1="0" x2="100" y2="800"/>
    <line x1="200" y1="0" x2="200" y2="800"/>
    <line x1="300" y1="0" x2="300" y2="800"/>
    <line x1="400" y1="0" x2="400" y2="800"/>
    <line x1="500" y1="0" x2="500" y2="800"/>
    <line x1="600" y1="0" x2="600" y2="800"/>
    <line x1="700" y1="0" x2="700" y2="800"/>
    <line x1="800" y1="0" x2="800" y2="800"/>
  </g>
  <g fill="#4ade80" font-family="monospace" font-size="11" opacity="0.7">
    <text x="42" y="58">a8</text>
    <text x="742" y="758">h1</text>
    <text x="342" y="458">e4</text>
  </g>
  <rect x="8" y="8" width="84" height="84" stroke="#fb923c88" fill="none" stroke-width="1"/>
  <rect x="308" y="308" width="84" height="84" stroke="#fb923c88" fill="none" stroke-width="1"/>
</svg>
